<svg width="40" height="40" viewBox="0 0 40 40" xmlns="http://www.w3.org/2000/svg">
<g clip-path="url(#clip0_33_266)">
<path d="M20 37.5C15.325 37.5 10.9313 35.68 7.62627 32.3738C2.22377 26.9725 0.941271 18.7812 4.43377 11.9938C4.75002 11.38 5.50252 11.1388 6.11752 11.4538C6.73127 11.7688 6.97377 12.5225 6.65752 13.1375C3.66377 18.9563 4.76252 25.9763 9.39377 30.6063C12.2263 33.44 15.9925 35 20 35C24.0063 35 27.7738 33.44 30.6063 30.6063C33.4388 27.7725 35 24.0063 35 20C35 15.9925 33.44 12.2262 30.6063 9.39375C27.7725 6.56125 24.0075 5 20 5C15.9925 5 12.2263 6.56125 9.39377 9.39375C8.90502 9.8825 8.11502 9.8825 7.62627 9.39375C7.13752 8.905 7.13752 8.115 7.62627 7.62625C10.9313 4.32125 15.325 2.5 20 2.5C24.675 2.5 29.07 4.32125 32.3738 7.62625C35.68 10.9312 37.5 15.325 37.5 20C37.5 24.6737 35.68 29.0688 32.3738 32.3738C29.07 35.68 24.675 37.5 20 37.5Z" />
<path d="M20 27.5C19.31 27.5 18.75 26.9412 18.75 26.25V13.75C18.75 13.06 19.31 12.5 20 12.5C20.69 12.5 21.25 13.06 21.25 13.75V26.25C21.25 26.9412 20.69 27.5 20 27.5Z" />
<path d="M26.25 21.25H13.75C13.06 21.25 12.5 20.69 12.5 20C12.5 19.31 13.06 18.75 13.75 18.75H26.25C26.9412 18.75 27.5 19.31 27.5 20C27.5 20.69 26.9412 21.25 26.25 21.25Z" />
</g>
<defs>
<clipPath id="clip0_33_266">
<rect width="40" height="40" />
</clipPath>
</defs>
</svg>
