<svg viewBox="0 0 39 34" xmlns="http://www.w3.org/2000/svg">
<path d="M34.0564 17.0133C30.6059 13.5469 25.8375 9.5625 19.5 9.5625C16.9406 9.5625 14.5945 10.1934 12.1189 11.5414C10.0318 12.6836 7.89141 14.2906 4.95117 16.9336L4.875 17L5.38535 17.4582C9.58242 21.2035 13.2082 24.4375 19.5 24.4375C22.2803 24.4375 24.9768 23.6473 27.7418 22.0203C30.0955 20.6324 32.0988 18.8727 33.7061 17.4516L34.125 17.0863L34.0564 17.0133ZM19.5 10.625C22.0213 10.625 24.4436 11.2559 26.9039 12.657C28.7244 13.693 30.5145 15.0941 32.5178 17.0465C29.6004 19.6164 25.2205 23.375 19.5 23.375C16.8949 23.375 14.6098 22.8172 12.3246 21.5023C10.2299 20.3004 8.34082 18.627 6.52031 17C11.0221 13.0355 14.7773 10.625 19.5 10.625Z"/>
<path d="M19.5 22.3125C22.8592 22.3125 25.5938 19.9285 25.5938 17C25.5938 14.0715 22.8592 11.6875 19.5 11.6875C16.1408 11.6875 13.4062 14.0715 13.4062 17C13.4062 19.9285 16.1408 22.3125 19.5 22.3125ZM19.5 12.7699C22.1812 12.7699 24.375 14.6691 24.375 17C24.375 19.3309 22.1812 21.2301 19.5 21.2301C16.8187 21.2301 14.6326 19.3309 14.6326 17C14.6326 14.6691 16.8187 12.7699 19.5 12.7699Z"/>
<path d="M21.9375 17C21.9375 18.1621 20.8406 19.125 19.5152 19.125C18.1899 19.125 17.0625 18.1156 17.0625 16.9535C17.0625 15.7914 18.266 14.875 19.5 14.875V13.8125C17.4815 13.8125 15.8514 15.2469 15.8514 17.0133C15.8514 18.7797 17.4891 20.2074 19.5 20.2074C21.5109 20.2074 23.1563 18.773 23.1563 17.0133V17H21.9375Z"/>
</svg>
