<?xml version="1.0" encoding="iso-8859-1"?>
<!-- Generator: Adobe Illustrator 16.0.0, SVG Export Plug-In . SVG Version: 6.00 Build 0)  -->
<!DOCTYPE svg PUBLIC "-//W3C//DTD SVG 1.1//EN" "http://www.w3.org/Graphics/SVG/1.1/DTD/svg11.dtd">
<svg version="1.1" id="Capa_1" fill="#39C198" xmlns="http://www.w3.org/2000/svg" xmlns:xlink="http://www.w3.org/1999/xlink" x="0px" y="0px"
	 width="98.397px" height="98.396px" viewBox="0 0 98.397 98.396" style="enable-background:new 0 0 98.397 98.396; transform: rotate(90deg);"
	 xml:space="preserve">
<g>
	<g>
		<path d="M66.573,9.146c-0.721-0.292-1.478-0.44-2.25-0.44c-2.457,0-4.641,1.471-5.562,3.749c-1.242,3.066,0.242,6.572,3.309,7.813
			c13.028,5.276,21.446,17.764,21.446,31.812c0,18.923-15.396,34.317-34.317,34.317c-18.922,0-34.317-15.395-34.317-34.317
			c0-14.044,8.418-26.529,21.446-31.805c1.485-0.602,2.647-1.746,3.272-3.221c0.625-1.476,0.638-3.106,0.036-4.592
			c-0.922-2.277-3.105-3.749-5.563-3.749c-0.772,0-1.529,0.148-2.25,0.44c-17.581,7.12-28.941,23.97-28.941,42.927
			c0,25.539,20.777,46.317,46.317,46.317c25.541,0,46.317-20.778,46.317-46.317C95.515,33.118,84.155,16.265,66.573,9.146z"/>
		<path d="M49.198,42.698c2.761,0,5-2.239,5-5V5c0-2.761-2.238-5-5-5s-5,2.239-5,5v32.698
			C44.198,40.459,46.437,42.698,49.198,42.698z"/>
	</g>
</g>
<g>
</g>
<g>
</g>
<g>
</g>
<g>
</g>
<g>
</g>
<g>
</g>
<g>
</g>
<g>
</g>
<g>
</g>
<g>
</g>
<g>
</g>
<g>
</g>
<g>
</g>
<g>
</g>
<g>
</g>
</svg>
