<svg width="32" height="33" viewBox="0 0 32 33" fill="none" xmlns="http://www.w3.org/2000/svg">
<path d="M17.7333 8.4826H16V6.8826C16 5.94927 15.4667 5.14927 14.6667 4.74927C13.8667 4.34927 12.8 4.4826 12.1333 5.01594L5.06667 10.7493C4.4 11.2826 4 12.2159 4 13.1493C4 14.0826 4.4 14.8826 5.06667 15.4159L12 21.1493C12.6667 21.6826 13.7333 21.8159 14.5333 21.4159C15.3333 21.0159 15.8667 20.2159 15.8667 19.2826V17.9493C18 18.3493 20 19.6826 21.0667 21.5493L23.3333 25.5493C23.7333 26.3493 24.5333 26.7493 25.3333 26.7493C25.6 26.7493 25.7333 26.7493 26 26.6159C27.0667 26.3493 27.7333 25.4159 27.7333 24.3493V18.4826C28 12.8826 23.4667 8.4826 17.7333 8.4826ZM25.3333 23.1493L23.4667 20.0826C21.6 17.0159 18.2667 15.0159 14.6667 15.0159C13.8667 15.0159 13.3333 15.5493 13.3333 16.3493V18.6159L6.8 13.2826C6.66667 13.2826 6.66667 13.1493 6.66667 13.1493C6.66667 13.1493 6.66667 13.0159 6.8 12.8826L13.3333 7.54927V9.81594C13.3333 10.6159 13.8667 11.1493 14.6667 11.1493H17.8667C22 11.1493 25.4667 14.4826 25.4667 18.4826V23.1493H25.3333Z" fill="black"/>
</svg>
