<svg width="32" height="32" viewBox="0 0 32 32" xmlns="http://www.w3.org/2000/svg">
<path d="M30 16C30 14.031 28.569 12.389 26.693 12.06L26.346 11.225C27.441 9.665 27.291 7.494 25.899 6.101C24.553 4.755 22.3 4.58 20.774 5.653L19.939 5.307C19.61 3.431 17.969 2 16 2C14.031 2 12.389 3.431 12.06 5.307L11.225 5.653C9.667 4.56 7.494 4.708 6.101 6.101C5.345 6.856 4.929 7.861 4.929 8.93C4.929 9.763 5.182 10.558 5.653 11.226L5.307 12.06C3.43 12.389 2 14.031 2 16C2 17.97 3.431 19.611 5.307 19.94L5.653 20.774C4.559 22.335 4.708 24.506 6.101 25.899C7.445 27.244 9.702 27.42 11.226 26.347L12.061 26.693C12.39 28.569 14.032 30 16.001 30C17.971 30 19.612 28.569 19.94 26.693L20.775 26.346C22.334 27.441 24.505 27.293 25.9 25.899C26.656 25.143 27.072 24.139 27.072 23.07C27.072 22.237 26.818 21.442 26.348 20.774L26.694 19.94C28.569 19.612 30 17.971 30 16V16ZM26 18.002C25.596 18.002 25.231 18.245 25.076 18.619L24.268 20.567C24.113 20.941 24.199 21.371 24.485 21.657C24.863 22.035 25.071 22.537 25.071 23.071C25.071 23.606 24.863 24.108 24.485 24.486C23.705 25.266 22.434 25.264 21.656 24.486C21.37 24.2 20.94 24.114 20.566 24.269L18.617 25.077C18.243 25.232 18 25.597 18 26.001C18 27.104 17.103 28.001 16 28.001C14.897 28.001 14 27.104 14 26.001C14 25.597 13.756 25.231 13.383 25.077L11.433 24.269C11.058 24.114 10.63 24.2 10.343 24.486C9.587 25.242 8.271 25.242 7.515 24.486C6.735 23.706 6.735 22.437 7.515 21.657C7.801 21.371 7.887 20.941 7.732 20.567L6.924 18.619C6.769 18.245 6.404 18.002 6 18.002C4.897 18.002 4 17.105 4 16.001C4 14.898 4.897 14.001 6 14.001C6.404 14.001 6.769 13.757 6.924 13.384L7.732 11.434C7.887 11.06 7.801 10.63 7.515 10.344C7.137 9.966 6.929 9.464 6.929 8.93C6.929 8.396 7.137 7.893 7.515 7.515C8.295 6.735 9.564 6.735 10.344 7.515C10.63 7.801 11.06 7.885 11.434 7.732L13.383 6.924C13.756 6.769 14 6.404 14 6C14 4.897 14.897 4 16 4C17.103 4 18 4.897 18 6C18 6.404 18.244 6.769 18.617 6.924L20.567 7.732C20.941 7.886 21.371 7.802 21.657 7.515C22.413 6.759 23.729 6.759 24.485 7.515C25.264 8.295 25.264 9.564 24.485 10.344C24.199 10.63 24.113 11.06 24.268 11.434L25.076 13.384C25.23 13.756 25.596 14 26 14C27.103 14 28 14.897 28 16C28 17.104 27.103 18.002 26 18.002Z"/>
<path d="M16 11C13.243 11 11 13.243 11 16C11 18.757 13.243 21 16 21C16.552 21 17 20.553 17 20C17 19.447 16.552 19 16 19C14.346 19 13 17.654 13 16C13 14.346 14.346 13 16 13C17.654 13 19 14.346 19 16C19 16.582 18.834 17.146 18.519 17.632C18.218 18.095 18.35 18.714 18.814 19.015C19.277 19.316 19.896 19.185 20.197 18.72C20.722 17.91 21 16.969 21 16C21 13.243 18.757 11 16 11Z"/>
</svg>
