<svg width="36" height="36" viewBox="0 0 36 36" xmlns="http://www.w3.org/2000/svg">
<path d="M9.71992 2.16C9.28117 2.16 8.83398 2.32594 8.53867 2.63813C8.24617 2.95032 8.1168 3.33844 8.06898 3.72657L8.06617 3.74063L7.40242 11.52H2.87992C2.35398 11.52 1.85055 11.9138 1.72117 12.375C1.58898 12.8363 1.73242 13.3369 2.08117 13.6856L2.1543 13.7559L2.2443 13.8038C3.23148 14.355 4.89086 14.9766 7.19992 15.4913V16.2169C5.99336 16.8047 5.03992 17.9016 5.03992 19.3697C5.03992 20.8097 5.94836 22.0303 7.19992 22.6209V25.2C7.19992 26.0184 7.53461 26.9128 8.07461 27.9C8.61461 28.8844 9.38523 29.9363 10.3387 30.915C11.5762 32.1806 13.1399 33.3281 14.9202 33.9863C15.5249 34.3491 16.2337 34.56 16.9902 34.56H19.0096C19.7915 34.56 20.5227 34.335 21.1387 33.9497C22.8993 33.2691 24.4434 32.0991 25.664 30.8278C26.6174 29.8378 27.3852 28.7831 27.9224 27.81C28.4624 26.8397 28.7999 25.9875 28.7999 25.2V22.7334C30.1865 22.2019 31.2496 20.9503 31.2496 19.3697C31.2496 17.7863 30.1865 16.5347 28.7999 16.0059V15.5053C31.1484 14.9681 32.788 14.3269 33.8034 13.8206L33.9074 13.7672L33.989 13.6856C34.3546 13.32 34.4671 12.7659 34.2984 12.3188C34.1268 11.8688 33.6459 11.52 33.1199 11.52H28.8871L28.2205 3.74063L28.2177 3.72657C28.1727 3.36938 28.0855 2.99813 27.8127 2.67188C27.5427 2.34282 27.0787 2.16 26.6399 2.16H9.71992ZM26.7074 3.59438C26.7046 3.58875 26.7609 3.68719 26.789 3.90375L27.194 8.64H9.09555L9.50055 3.89813C9.52586 3.72094 9.57367 3.63938 9.58492 3.62813C9.59898 3.61407 9.58211 3.6 9.71992 3.6H26.6399C26.7777 3.6 26.7102 3.59719 26.7074 3.59438ZM8.78617 12.24H27.5005L27.5624 12.96H32.1243C29.8434 13.9078 25.5655 15.12 18.2165 15.12C10.8196 15.12 6.1818 13.9134 3.92617 12.96H8.72711L8.78617 12.24ZM8.63992 15.7781C11.1655 16.2338 14.3184 16.56 18.2165 16.56C21.9712 16.56 24.9609 16.2366 27.3599 15.795V17.0719L27.9337 17.1928C28.9968 17.4178 29.8096 18.2897 29.8096 19.3697C29.8096 20.4497 28.9968 21.3188 27.9337 21.5438L27.3599 21.6647V25.2C27.3599 25.4925 27.1377 26.2603 26.6652 27.1125C26.1927 27.9619 25.4924 28.9322 24.6262 29.8322C24.1255 30.3525 23.5659 30.8419 22.9668 31.2834C23.0118 31.0388 23.0399 30.7856 23.0399 30.5297V27.36C23.0399 25.7766 21.7434 24.48 20.1599 24.48H15.8399C14.2565 24.48 12.9599 25.7766 12.9599 27.36V30.5297C12.9599 30.8081 12.988 31.0809 13.0415 31.3425C12.4396 30.9094 11.8743 30.4256 11.3709 29.9081C10.5074 29.0222 9.80711 28.0631 9.33742 27.2053C8.86492 26.3475 8.63992 25.5684 8.63992 25.2V21.6366L8.12242 21.4847C7.20273 21.2147 6.47992 20.3175 6.47992 19.3697C6.47992 18.3291 7.17742 17.5275 8.12242 17.2491L8.63992 17.1V15.7781ZM8.63992 17.28L9.71992 21.0966C9.93648 21.8166 10.5834 22.32 11.3765 22.32H14.6165C15.3365 22.32 16.0565 21.8869 16.3434 21.24C16.3434 21.24 17.0634 19.8731 17.5696 18.9366C17.6399 18.72 17.8565 18.6497 18.0702 18.6497C18.2868 18.6497 18.5034 18.7931 18.5765 18.9366L19.7296 21.24C20.0896 21.8869 20.7365 22.32 21.4565 22.32H24.6965C25.4896 22.32 26.1365 21.8166 26.3502 21.0966L27.3599 17.28H8.63992ZM10.5102 18.72H16.0565C15.6234 19.5834 15.0496 20.5903 15.0496 20.5903V20.7366C14.9765 20.8097 14.833 20.9503 14.6165 20.9503H11.3765C11.1599 20.9503 11.0896 20.8097 11.0896 20.8097L10.5102 18.72ZM20.0896 18.72H25.4896L24.9834 20.6634C24.9834 20.7366 24.913 20.88 24.6965 20.88H21.4565C21.313 20.88 21.0965 20.7366 21.0234 20.5903L20.0896 18.72ZM15.8399 27.36H20.1599C20.953 27.36 21.5999 28.0069 21.5999 28.8V29.52L19.4399 31.68V30.24C19.4399 29.4469 18.793 28.8 17.9999 28.8C17.2068 28.8 16.5599 29.4469 16.5599 30.24V31.68L14.3999 29.52V28.8C14.3999 28.0069 15.0468 27.36 15.8399 27.36Z"/>
</svg>
